<svg width="886" height="596" viewBox="0 0 886 596" fill="none" xmlns="http://www.w3.org/2000/svg">
<path d="M209.629 241.237C240.028 241.237 264.671 216.594 264.671 186.195C264.671 155.797 240.028 131.154 209.629 131.154C179.231 131.154 154.588 155.797 154.588 186.195C154.588 216.594 179.231 241.237 209.629 241.237Z" fill="#FF6584"/>
<path d="M550.62 248.518C550.62 356.883 486.199 394.719 406.732 394.719C327.264 394.719 262.843 356.883 262.843 248.518C262.843 140.154 406.732 2.29688 406.732 2.29688C406.732 2.29688 550.62 140.154 550.62 248.518Z" fill="#6482C4"/>
<path d="M401.49 378.143L402.963 287.451L464.292 175.253L403.194 273.225L403.857 232.446L446.124 151.272L404.032 221.655L405.224 148.313L450.485 83.6879L405.411 136.78L406.155 2.29688L401.477 180.328L401.862 172.984L355.844 102.547L401.124 187.082L396.836 268.993L396.708 266.819L343.659 192.694L396.548 274.499L396.011 284.743L395.915 284.897L395.959 285.738L385.081 493.552H399.615L401.359 386.212L454.118 304.607L401.49 378.143Z" fill="#3F3D56"/>
<path d="M689.452 350.869C689.452 459.233 625.031 497.07 545.564 497.07C466.096 497.07 401.675 459.233 401.675 350.869C401.675 242.504 545.564 104.647 545.564 104.647C545.564 104.647 689.452 242.504 689.452 350.869Z" fill="#3F3D56"/>
<path d="M540.322 480.493L541.796 389.802L603.124 277.604L542.027 375.575L542.689 334.797L584.957 253.623L542.864 324.005V324.006L544.056 250.663L589.317 186.039L544.243 239.131L544.988 104.647L540.309 282.679L540.694 275.335L494.676 204.898L539.956 289.433L535.668 371.343L535.54 369.169L482.491 295.045L535.38 376.85L534.844 387.094L534.747 387.248L534.791 388.089L523.913 595.902H538.447L540.191 488.562L592.95 406.958L540.322 480.493Z" fill="#F2F2F2"/>
<path d="M418.881 350.869C418.881 459.233 354.46 497.07 274.993 497.07C195.526 497.07 131.105 459.233 131.105 350.869C131.105 242.504 274.993 104.647 274.993 104.647C274.993 104.647 418.881 242.504 418.881 350.869Z" fill="#3F3D56"/>
<path d="M269.751 480.493L271.225 389.802L332.554 277.604L271.456 375.575L272.118 334.797L314.386 253.623L272.294 324.005V324.006L273.485 250.663L318.746 186.039L273.672 239.131L274.417 104.647L269.739 282.679L270.123 275.335L224.106 204.898L269.385 289.433L265.097 371.343L264.97 369.169L211.92 295.045L264.809 376.85L264.273 387.094L264.177 387.248L264.221 388.089L253.342 595.902H267.876L269.62 488.562L322.38 406.958L269.751 480.493Z" fill="#F2F2F2"/>
<path d="M410.395 594.987C341.576 594.987 274.885 571.125 221.687 527.467C168.489 483.808 132.075 423.055 118.649 355.558C105.222 288.061 115.615 217.997 148.056 157.304C180.497 96.6107 232.979 49.0437 296.56 22.7076C360.14 -3.62848 430.886 -7.10409 496.742 12.873C562.598 32.8501 619.489 75.0438 657.723 132.265C695.957 189.486 713.168 258.194 706.422 326.682C699.677 395.17 669.393 459.2 620.73 507.862C593.173 535.571 560.394 557.538 524.289 572.493C488.185 587.448 449.473 595.093 410.395 594.987ZM410.395 2.33667C247.627 2.33667 115.205 134.758 115.205 297.526C115.205 460.294 247.627 592.716 410.395 592.716C573.162 592.716 705.584 460.294 705.584 297.526C705.584 134.758 573.162 2.33667 410.395 2.33667Z" fill="#2F2E41"/>
<path d="M653.626 467.234V593.905H167.207V467.234L410.416 340.562L410.923 340.825L653.626 467.234Z" fill="#F2F2F2"/>
<path opacity="0.1" d="M653.626 467.234V593.905H410.923V340.825L653.626 467.234Z" fill="black"/>
<path d="M389.642 418.085L371.402 424.972V397.818L389.642 389.823V418.085Z" fill="#3F3D56"/>
<path d="M187.981 494.088L181.901 496.387V479.901L187.981 477.213V494.088Z" fill="#3F3D56"/>
<path d="M209.262 486.994L202.168 489.653V471.794L209.262 468.68V486.994Z" fill="#3F3D56"/>
<path d="M232.569 477.874L224.462 480.923V461.66L232.569 458.092V477.874Z" fill="#3F3D56"/>
<path d="M260.944 466.727L250.81 470.552V450.513L260.944 446.067V466.727Z" fill="#3F3D56"/>
<path d="M295.398 453.553L283.238 458.149V436.326L295.398 430.992V453.553Z" fill="#3F3D56"/>
<path d="M336.947 438.352L322.76 443.697V419.098L336.947 412.879V438.352Z" fill="#3F3D56"/>
<path d="M187.981 527.529L181.901 529.058V512.329L187.981 510.406V527.529Z" fill="#3F3D56"/>
<path d="M209.262 522.463L202.168 524.239V506.249L209.262 504.013V522.463Z" fill="#3F3D56"/>
<path d="M232.569 516.382L224.462 518.419V499.155L232.569 496.598V516.382Z" fill="#3F3D56"/>
<path d="M260.944 509.289L250.81 511.834V491.048L260.944 487.859V509.289Z" fill="#3F3D56"/>
<path d="M295.398 500.168L283.238 503.237V480.914L295.398 477.089V500.168Z" fill="#3F3D56"/>
<path d="M336.947 490.035L321.746 493.858V468.754L336.947 463.971V490.035Z" fill="#3F3D56"/>
<path d="M389.642 476.861L371.402 481.446V453.553L389.642 447.831V476.861Z" fill="#3F3D56"/>
<path d="M389.642 534.623L371.402 536.945V509.289L389.642 505.839V534.623Z" fill="#3F3D56"/>
<path d="M187.981 559.957L181.901 560.739V544.757L187.981 543.598V559.957Z" fill="#3F3D56"/>
<path d="M209.262 557.931L202.168 558.825V541.717L209.262 540.386V557.931Z" fill="#3F3D56"/>
<path d="M232.569 554.89L224.462 555.916V536.65L232.569 535.105V554.89Z" fill="#3F3D56"/>
<path d="M260.944 550.837L250.81 552.132V531.583L260.944 529.65V550.837Z" fill="#3F3D56"/>
<path d="M295.398 546.783L283.238 548.326V525.503L295.398 523.187V546.783Z" fill="#3F3D56"/>
<path d="M336.947 541.717L321.746 543.638V518.409L336.947 515.524V541.717Z" fill="#3F3D56"/>
<path d="M633.865 494.088L639.946 496.387V479.901L633.865 477.213V494.088Z" fill="#3F3D56"/>
<path d="M612.584 486.994L619.678 489.653V471.794L612.584 468.68V486.994Z" fill="#3F3D56"/>
<path d="M589.277 477.874L597.384 480.923V461.66L589.277 458.092V477.874Z" fill="#3F3D56"/>
<path d="M560.902 466.727L571.036 470.552V450.513L560.902 446.067V466.727Z" fill="#3F3D56"/>
<path d="M526.448 453.553L538.608 458.149V436.326L526.448 430.992V453.553Z" fill="#3F3D56"/>
<path d="M484.899 438.352L499.087 443.697V419.098L484.899 412.879V438.352Z" fill="#3F3D56"/>
<path d="M633.865 527.529L639.946 529.058V512.329L633.865 510.406V527.529Z" fill="#3F3D56"/>
<path d="M612.584 522.463L619.678 524.239V506.249L612.584 504.013V522.463Z" fill="#3F3D56"/>
<path d="M589.277 516.382L597.384 518.419V499.155L589.277 496.598V516.382Z" fill="#3F3D56"/>
<path d="M560.902 509.289L571.036 511.834V491.048L560.902 487.859V509.289Z" fill="#3F3D56"/>
<path d="M526.448 500.168L538.608 503.237V480.914L526.448 477.089V500.168Z" fill="#3F3D56"/>
<path d="M484.899 490.035L500.1 493.858V468.754L484.899 463.971V490.035Z" fill="#3F3D56"/>
<path d="M432.204 476.861L450.445 481.446V453.553L432.204 447.831V476.861Z" fill="#3F3D56"/>
<path d="M432.204 534.623L450.445 536.945V509.289L432.204 505.839V534.623Z" fill="#3F3D56"/>
<path d="M633.865 559.957L639.946 560.739V544.757L633.865 543.598V559.957Z" fill="#3F3D56"/>
<path d="M612.584 557.931L619.678 558.825V541.717L612.584 540.386V557.931Z" fill="#3F3D56"/>
<path d="M589.277 554.89L597.384 555.916V536.65L589.277 535.105V554.89Z" fill="#3F3D56"/>
<path d="M560.902 550.837L571.036 552.132V531.583L560.902 529.65V550.837Z" fill="#3F3D56"/>
<path d="M526.448 546.783L538.608 548.326V525.503L526.448 523.187V546.783Z" fill="#3F3D56"/>
<path d="M484.899 541.717L500.1 543.638V518.409L484.899 515.524V541.717Z" fill="#3F3D56"/>
<path d="M449.431 425.179L431.191 418.3V389.711L449.431 397.709V425.179Z" fill="#3F3D56"/>
<path d="M620.707 571.35H619.22V595.139H620.707V571.35Z" fill="#2F2E41"/>
<path d="M638.225 577.825H637.171V594.682H638.225V577.825Z" fill="#2F2E41"/>
<path d="M653.792 579.883H652.866V594.699H653.792V579.883Z" fill="#2F2E41"/>
<path d="M577.116 563.808V594.412L557.356 594.382L537.595 594.351V559.957L557.356 561.883L577.116 563.808Z" fill="#3F3D56"/>
<path d="M244.73 594.412L284.251 594.349V559.957L244.73 563.804V594.412Z" fill="#3F3D56"/>
<path d="M885.5 593.398H0V595.425H885.5V593.398Z" fill="#2F2E41"/>
<path opacity="0.1" d="M577.116 563.808V594.412L557.356 594.382V561.883L577.116 563.808Z" fill="black"/>
<path d="M408.39 566.544H406.363V594.919H408.39V566.544Z" fill="#2F2E41"/>
<path d="M419.072 556.443C419.072 566.386 413.761 574.683 407.376 574.968C401.169 575.245 396.262 567.805 396.262 558.356C396.262 548.908 408.39 522.969 408.39 522.969C408.39 522.969 419.072 546.5 419.072 556.443Z" fill="#6482C4"/>
<path d="M169.955 575.638H168.746V592.562H169.955V575.638Z" fill="#2F2E41"/>
<path d="M176.327 569.612C176.327 575.543 173.159 580.492 169.351 580.662C165.648 580.828 162.722 576.39 162.722 570.754C162.722 565.118 169.955 549.646 169.955 549.646C169.955 549.646 176.327 563.682 176.327 569.612Z" fill="#6482C4"/>
<path d="M628.141 572.288C628.141 577.928 624.587 582.334 619.964 582.117C615.055 581.887 610.847 576.592 610.847 570.303C610.847 564.015 619.964 548.304 619.964 548.304C619.964 548.304 628.141 566.648 628.141 572.288Z" fill="#6482C4"/>
<path d="M643.492 578.49C643.492 582.486 640.974 585.608 637.698 585.455C634.219 585.291 631.238 581.539 631.238 577.083C631.238 572.627 637.698 561.495 637.698 561.495C637.698 561.495 643.492 574.493 643.492 578.49Z" fill="#6482C4"/>
<path d="M658.422 580.468C658.422 583.98 656.208 586.724 653.329 586.589C650.272 586.446 647.651 583.148 647.651 579.232C647.651 575.315 653.329 565.531 653.329 565.531C653.329 565.531 658.422 576.955 658.422 580.468Z" fill="#6482C4"/>
</svg>
