<svg width="439" height="386" viewBox="0 0 439 386" fill="none" xmlns="http://www.w3.org/2000/svg">
<path d="M222.5 376.397C316.518 376.397 392.735 371.948 392.735 366.458C392.735 360.969 316.518 356.52 222.5 356.52C128.482 356.52 52.2645 360.969 52.2645 366.458C52.2645 371.948 128.482 376.397 222.5 376.397Z" fill="#F5F5F5"/>
<path d="M439 325.466H0V325.715H439V325.466Z" fill="#EBEBEB"/>
<path d="M371.008 332.236H348.206V332.485H371.008V332.236Z" fill="#EBEBEB"/>
<path d="M277.149 334.025H269.52V334.274H277.149V334.025Z" fill="#EBEBEB"/>
<path d="M395.012 341.461H378.163V341.709H395.012V341.461Z" fill="#EBEBEB"/>
<path d="M60.3274 333.907H46.0599V334.155H60.3274V333.907Z" fill="#EBEBEB"/>
<path d="M97.3614 333.907H65.0247V334.155H97.3614V333.907Z" fill="#EBEBEB"/>
<path d="M259.309 338.102H177.057V338.35H259.309V338.102Z" fill="#EBEBEB"/>
<path d="M208.086 281.13H38.5529C37.2248 281.127 35.9519 280.528 35.0136 279.464C34.0753 278.4 33.5483 276.957 33.5483 275.454V5.62657C33.5599 4.13148 34.092 2.70193 35.029 1.64843C35.9661 0.594924 37.2324 0.00256117 38.5529 0H208.086C209.416 0 210.691 0.598035 211.631 1.66254C212.571 2.72705 213.099 4.17083 213.099 5.67628V275.454C213.099 276.959 212.571 278.403 211.631 279.467C210.691 280.532 209.416 281.13 208.086 281.13ZM38.5529 0.19882C37.283 0.201453 36.066 0.774464 35.1688 1.79208C34.2717 2.8097 33.7678 4.18876 33.7678 5.62657V275.454C33.7678 276.891 34.2717 278.27 35.1688 279.288C36.066 280.306 37.283 280.879 38.5529 280.881H208.086C209.357 280.879 210.575 280.306 211.473 279.289C212.372 278.271 212.878 276.892 212.88 275.454V5.62657C212.878 4.18785 212.372 2.80881 211.473 1.79147C210.575 0.774141 209.357 0.201447 208.086 0.19882H38.5529Z" fill="#EBEBEB"/>
<path d="M398.006 281.13H228.464C227.136 281.127 225.862 280.528 224.922 279.464C223.982 278.4 223.453 276.958 223.451 275.454V5.62657C223.465 4.13057 223.999 2.70103 224.937 1.6478C225.876 0.594576 227.143 0.00253324 228.464 0H398.006C399.325 0.00517376 400.589 0.598692 401.524 1.65191C402.46 2.70514 402.99 4.1332 403.002 5.62657V275.454C403.002 276.956 402.476 278.396 401.54 279.46C400.603 280.524 399.333 281.125 398.006 281.13ZM228.464 0.19882C227.194 0.201447 225.976 0.774141 225.077 1.79147C224.179 2.80881 223.673 4.18785 223.671 5.62657V275.454C223.673 276.892 224.179 278.271 225.077 279.289C225.976 280.306 227.194 280.879 228.464 280.881H398.006C399.277 280.879 400.495 280.306 401.393 279.289C402.292 278.271 402.798 276.892 402.8 275.454V5.62657C402.798 4.18785 402.292 2.80881 401.393 1.79147C400.495 0.774141 399.277 0.201447 398.006 0.19882H228.464Z" fill="#EBEBEB"/>
<path d="M186.9 251.635H145.827V325.466H186.9V251.635Z" fill="#F0F0F0"/>
<path d="M57.1578 325.466H145.827V251.635H57.1578L57.1578 325.466Z" fill="#F5F5F5"/>
<path d="M56.7275 311.619H100.355V283.844H56.7275V311.619Z" fill="#FAFAFA"/>
<g style="mix-blend-mode:multiply" opacity="0.7">
<path d="M186.9 258.296H56.7275V261.865H186.9V258.296Z" fill="#E6E6E6"/>
</g>
<path d="M189.165 249.478H145.827V259.796H189.165V249.478Z" fill="#F0F0F0"/>
<path d="M54.8926 259.797H145.827V249.478H54.8926V259.797Z" fill="#F5F5F5"/>
<path d="M64.6471 249.289H93.507V197.407H64.6471V249.289Z" fill="#F5F5F5"/>
<path d="M155.819 197.407H93.507V249.289H155.819V197.407Z" fill="#F0F0F0"/>
<path d="M156.117 220.042H125.457V239.557H156.117V220.042Z" fill="#F5F5F5"/>
<g style="mix-blend-mode:multiply" opacity="0.7">
<path d="M64.6384 204.595H156.117V202.09H64.6384V204.595Z" fill="#E6E6E6"/>
</g>
<path d="M63.0491 203.144H93.507V195.897H63.0491V203.144Z" fill="#F5F5F5"/>
<path d="M157.408 195.896H93.507V203.143H157.408V195.896Z" fill="#F0F0F0"/>
<path d="M41.5206 168.181L193.704 168.181L193.704 34.634L41.5206 34.634L41.5206 168.181Z" fill="#E6E6E6"/>
<path d="M38.351 168.181L190.535 168.181L190.535 34.634L38.351 34.634L38.351 168.181Z" fill="#F5F5F5"/>
<path d="M31.0109 175.915L193.704 175.915V168.181L31.0109 168.181V175.915Z" fill="#E6E6E6"/>
<path d="M27.4463 175.915L183.125 175.915V168.181L27.4463 168.181V175.915Z" fill="#F5F5F5"/>
<path d="M184.854 161.242V41.5928L44.0493 41.5928V161.242H184.854Z" fill="#FAFAFA"/>
<path d="M96.3605 161.242L135.791 41.5928H95.5791L56.1481 161.242H96.3605Z" fill="white"/>
<path d="M125.422 161.242L164.853 41.5928H142.701L103.279 161.242H125.422Z" fill="white"/>
<path d="M117.617 161.242V41.5928H111.278V161.242H117.617Z" fill="#F5F5F5"/>
<path d="M46.4462 161.242L46.4462 41.5928H44.0492L44.0492 161.242H46.4462Z" fill="#E6E6E6"/>
<path d="M120.014 161.232V41.583H117.617V161.232H120.014Z" fill="#E6E6E6"/>
<path d="M251.17 325.466H363.843L363.843 12.8137H251.17L251.17 325.466Z" fill="#F0F0F0"/>
<path d="M251.17 325.466H358.505L358.505 12.8137H251.17L251.17 325.466Z" fill="#F5F5F5"/>
<path d="M352.851 318.369V19.9019L256.824 19.9019V318.369H352.851Z" fill="#F0F0F0"/>
<path d="M277.518 154.363H269.967C267.645 154.363 265.762 156.495 265.762 159.125V159.622C265.762 162.252 267.645 164.384 269.967 164.384H277.518C279.841 164.384 281.724 162.252 281.724 159.622V159.125C281.724 156.495 279.841 154.363 277.518 154.363Z" fill="white"/>
<path d="M258.299 318.369V19.9019H256.833V318.369H258.299Z" fill="#F0F0F0"/>
<path d="M120.441 131.758C120.696 132.759 120.441 133.593 119.949 133.628C119.458 133.663 118.773 132.89 118.518 131.872C118.264 130.853 118.474 130.046 119.01 130.002C119.545 129.958 120.178 130.766 120.441 131.758Z" fill="white"/>
<path d="M121.178 139.125C121.683 139.006 121.901 138.095 121.664 137.089C121.428 136.084 120.827 135.365 120.322 135.484C119.817 135.602 119.599 136.514 119.835 137.519C120.072 138.525 120.673 139.243 121.178 139.125Z" fill="white"/>
<path d="M137.492 308.903H51V359.853H137.492V308.903Z" fill="#407BFF"/>
<path opacity="0.7" d="M137.492 308.903H51V359.853H137.492V308.903Z" fill="white"/>
<path opacity="0.3" d="M73.2397 308.903H51V359.853H73.2397V308.903Z" fill="#407BFF"/>
<path opacity="0.7" d="M114.567 308.903H96.1731V318.236H114.567V308.903Z" fill="white"/>
<path opacity="0.7" d="M65.6889 308.903H58.5508V318.236H65.6889V308.903Z" fill="white"/>
<path opacity="0.3" d="M132.645 344.848H122.478V355.015H132.645V344.848Z" fill="#407BFF"/>
<path opacity="0.3" d="M119.484 344.848H109.317V355.015H119.484V344.848Z" fill="#407BFF"/>
<path d="M57.5587 308.903H116.314V274.283H57.5587L57.5587 308.903Z" fill="#407BFF"/>
<path opacity="0.7" d="M57.5587 308.903H116.314V274.283H57.5587L57.5587 308.903Z" fill="white"/>
<path opacity="0.3" d="M101.204 274.292H57.5587V308.912H101.204V274.292Z" fill="#407BFF"/>
<path opacity="0.7" d="M73.1344 280.631H85.6283V274.292H73.1344V280.631Z" fill="white"/>
<path opacity="0.7" d="M106.34 280.631H111.187V274.292H106.34V280.631Z" fill="white"/>
<path opacity="0.3" d="M60.8423 305.619H67.7522V298.709H60.8423V305.619Z" fill="#407BFF"/>
<path opacity="0.3" d="M69.7892 305.619H76.6991V298.709H69.7892V305.619Z" fill="#407BFF"/>
<path d="M159.477 356.034H218.364V321.344H159.477V356.034Z" fill="#407BFF"/>
<path opacity="0.7" d="M159.477 356.034H218.364V321.344H159.477V356.034Z" fill="white"/>
<path opacity="0.3" d="M203.228 321.344H159.486V356.034H203.228V321.344Z" fill="#407BFF"/>
<path opacity="0.7" d="M159.486 343.654H162.778V333.777H159.486V343.654Z" fill="white"/>
<path opacity="0.7" d="M199.057 343.663H207.389V333.786H199.057V343.663Z" fill="white"/>
<path opacity="0.3" d="M210.269 352.425H213.044V345.498H210.269V352.425Z" fill="#407BFF"/>
<path opacity="0.3" d="M213.86 352.425H216.635V345.498H213.86V352.425Z" fill="#407BFF"/>
<path d="M201.92 360.292L187.775 363.435L193.184 378.712L205.002 376.104L201.92 360.292Z" fill="#FFB573"/>
<path opacity="0.2" d="M201.92 360.3L187.766 363.444L190.796 371.995L203.649 369.151L201.92 360.3Z" fill="black"/>
<path d="M168.529 301.07C162.585 280.657 147.765 259.356 155.939 239.917L196.81 239.803C196.81 239.803 200.102 284.212 201.121 303.089C202.183 322.722 204.326 366.147 204.326 366.147L188.197 369.659C188.197 369.659 172.577 337.209 168.529 301.07Z" fill="#263238"/>
<path opacity="0.2" d="M154.306 260.199C156.299 271.051 161.751 282.149 165.852 293.133C170.786 272.394 170.18 248.012 154.306 260.199Z" fill="black"/>
<path d="M214.809 374.734C214.809 374.734 211.042 376.429 206.433 373.751C206.154 373.629 205.853 373.57 205.549 373.579C205.245 373.588 204.947 373.665 204.677 373.803C202.306 374.787 195.976 377.193 191.884 376.683C191.794 376.669 191.703 376.678 191.617 376.707C191.531 376.737 191.454 376.788 191.392 376.855C191.33 376.922 191.286 377.003 191.263 377.091C191.24 377.179 191.24 377.271 191.261 377.359C191.844 379.519 192.24 381.725 192.446 383.953L196.195 383.154L196.678 381.828L198.654 382.645C204.847 381.693 210.926 380.104 216.793 377.904C217.337 375.507 214.809 374.734 214.809 374.734Z" fill="#407BFF"/>
<path d="M142.023 362.987L128.537 363.119L127.948 379.019L139.213 378.931L142.023 362.987Z" fill="#FFB573"/>
<path opacity="0.2" d="M142.023 362.996L128.528 363.119L128.203 372.03L140.451 371.925L142.023 362.996Z" fill="black"/>
<path d="M127.36 301.07C126.271 280.657 124.788 250.146 131.627 240.743L173.622 239.803C173.622 239.803 161.945 284.529 157.59 303.318C153.059 322.897 141.952 369.168 141.952 369.168H127.378C127.378 369.168 121.873 324.363 127.36 301.07Z" fill="#263238"/>
<path d="M190.883 173.075L191.524 174.603L192.279 176.359C192.806 177.509 193.333 178.677 193.904 179.801C195.005 182.023 196.228 184.183 197.565 186.272C198.215 187.273 198.891 188.247 199.593 189.134C200.25 190.013 200.957 190.855 201.709 191.654C202.998 193.027 204.476 194.21 206.099 195.166L203.035 194.49C204.552 194.724 206.083 194.847 207.618 194.859C209.287 194.882 210.956 194.794 212.614 194.595C214.37 194.411 216.126 194.112 217.882 193.717C218.76 193.533 219.638 193.34 220.569 193.111L221.912 192.787L222.57 192.62C222.753 192.561 222.941 192.522 223.132 192.506L226.319 193.076C227.117 193.212 227.861 193.566 228.471 194.098C229.08 194.63 229.53 195.321 229.772 196.093C230.013 196.865 230.037 197.689 229.84 198.473C229.643 199.258 229.233 199.973 228.655 200.539L227.926 201.259L227.276 201.883C226.837 202.287 226.398 202.682 225.942 203.059C225.064 203.805 224.107 204.525 223.132 205.193C221.171 206.535 219.101 207.71 216.942 208.705C214.7 209.724 212.369 210.538 209.98 211.137C207.473 211.763 204.906 212.116 202.324 212.19C201.57 212.216 200.818 212.094 200.111 211.83L199.233 211.514C197.302 210.784 195.442 209.879 193.675 208.81C192.019 207.784 190.446 206.631 188.969 205.36C187.572 204.154 186.244 202.87 184.992 201.514C183.772 200.179 182.683 198.801 181.629 197.405C180.576 196.009 179.627 194.586 178.741 193.138C177.854 191.689 176.985 190.24 176.238 188.748C175.492 187.255 174.746 185.763 174.096 184.226C173.771 183.453 173.446 182.681 173.148 181.891L172.7 180.67L172.481 180.047L172.235 179.283C171.449 176.875 171.623 174.256 172.722 171.974C173.82 169.692 175.757 167.922 178.13 167.033C180.502 166.145 183.125 166.208 185.453 167.207C187.78 168.207 189.631 170.067 190.62 172.399L190.883 173.075Z" fill="#FFB573"/>
<path d="M222.035 201.856L220.077 196.527C220.138 190.556 227.795 191.97 227.795 191.97L233.51 190.697C234.216 190.602 234.933 190.76 235.534 191.142C236.134 191.524 236.581 192.107 236.794 192.786L238.19 196.5C238.522 197.247 238.55 198.094 238.268 198.861C237.986 199.628 237.416 200.255 236.68 200.609L231.64 202.365C230.685 202.734 229.653 202.857 228.637 202.725L222.035 201.856Z" fill="#FFB573"/>
<path d="M179.118 157.526C187.538 161.038 194.922 176.306 194.922 176.306C194.536 179.994 186.054 190.293 178.574 192.936C178.574 192.936 172.744 190.512 169.074 182.549C164.385 172.241 170.189 153.803 179.118 157.526Z" fill="#6482C4"/>
<path d="M174.377 156.446C161.905 155.261 149.34 155.461 136.913 157.043C135.211 157.294 133.578 157.89 132.114 158.795C130.651 159.699 129.387 160.892 128.401 162.302C127.415 163.712 126.726 165.308 126.378 166.993C126.03 168.677 126.03 170.416 126.377 172.101C132.207 201.435 126.096 234.342 129.889 240.901C129.889 240.901 173.2 241.471 197.416 239.803C204.053 207.958 191.006 188.467 184.448 163.593C183.315 159.343 178.749 156.902 174.377 156.446Z" fill="#6482C4"/>
<path d="M140.618 180.67C139.336 182.944 137.914 185.35 136.553 187.694L132.505 194.718C131.847 195.877 131.197 197.036 130.582 198.178C129.968 199.319 129.344 200.452 128.826 201.549C128.308 202.647 127.782 203.735 127.369 204.657C127.167 205.114 126.991 205.535 126.877 205.834L126.798 206.036V206.115C126.746 206.229 126.798 206.001 126.719 205.886L126.675 205.008C126.735 206.968 126.982 208.917 127.413 210.83C127.869 213.025 128.431 215.334 129.09 217.643C129.748 219.952 130.424 222.331 131.136 224.719C131.847 227.108 132.602 229.54 133.243 231.902L133.304 232.112C133.596 233.198 133.512 234.351 133.066 235.383C132.619 236.415 131.837 237.265 130.845 237.796C129.854 238.326 128.712 238.505 127.605 238.304C126.499 238.102 125.493 237.532 124.752 236.687C122.989 234.636 121.336 232.494 119.801 230.268C119.045 229.162 118.282 228.056 117.562 226.906C116.842 225.756 116.148 224.605 115.463 223.394C114.08 220.959 112.832 218.45 111.723 215.878C110.453 212.976 109.542 209.931 109.01 206.808C108.997 206.633 108.997 206.457 109.01 206.281V205.904C108.998 205.124 109.036 204.344 109.124 203.568C109.124 203.252 109.203 202.892 109.247 202.603L109.396 201.777C109.598 200.68 109.835 199.767 110.072 198.88C110.555 197.124 111.126 195.596 111.688 194.095C112.25 192.593 112.847 191.18 113.444 189.784C114.041 188.388 114.708 187.036 115.349 185.692C116.631 182.997 117.983 180.424 119.449 177.852C120.916 175.279 122.338 172.838 124.024 170.31C125.52 168.431 127.652 167.165 130.017 166.749C132.383 166.333 134.818 166.797 136.866 168.052C138.913 169.307 140.431 171.268 141.134 173.564C141.836 175.861 141.674 178.335 140.679 180.521L140.618 180.67Z" fill="#FFB573"/>
<path d="M132.409 158.738C124.076 162.478 117.123 177.606 117.123 177.606C117.939 182.874 129.731 194.148 135.894 196.272C135.894 196.272 141.039 191.742 143.436 181.188C146.184 169.063 136.913 159.704 132.409 158.738Z" fill="#6482C4"/>
<path d="M168.477 158.615C167.659 157.028 166.328 155.766 164.701 155.032C164.089 153.455 164.043 151.714 164.57 150.107L146.132 144.224C147.624 150.37 148.766 155.146 146.518 158.114C150.144 160.327 156.799 164.26 164.078 164.102C171.357 163.944 169.653 161.17 168.477 158.615Z" fill="#FFB573"/>
<path opacity="0.2" d="M164.385 150.677L150.531 149.861C154.868 154.488 161.435 156.235 164.429 154.347C164.106 153.147 164.09 151.885 164.385 150.677Z" fill="black"/>
<path d="M164.464 164.085L161.47 161.609L157.44 163.628C157.44 163.628 159.995 165.999 164.464 164.085Z" fill="#407BFF"/>
<path opacity="0.3" d="M164.464 164.085L161.47 161.609L157.44 163.628C157.44 163.628 159.995 165.999 164.464 164.085Z" fill="black"/>
<path d="M168.319 128.798C168.556 132.521 166.159 135.708 162.963 135.91C159.767 136.112 156.993 133.276 156.756 129.527C156.518 125.778 158.915 122.617 162.111 122.415C165.307 122.213 168.082 125.075 168.319 128.798Z" fill="#263238"/>
<path d="M170.926 142.1C171.163 145.822 168.767 149.01 165.571 149.212C162.375 149.413 159.6 146.577 159.363 142.828C159.126 139.079 161.532 135.919 164.719 135.717C167.906 135.515 170.689 138.368 170.926 142.1Z" fill="#263238"/>
<path d="M143.059 134.259C144.622 142.354 145.877 147.824 151.391 150.818C162.357 156.78 167.862 151.81 168.951 143.487C169.908 135.989 167.195 124.013 158.187 121.589C149.31 119.201 141.487 126.164 143.059 134.259Z" fill="#FFB573"/>
<path d="M164.456 140.536C173.903 138.578 172.586 147.789 170.312 151.072C168.31 153.996 163.973 156.525 156.439 153.39C148.608 150.142 150.697 144.54 148.195 141.16C147.317 139.931 149.284 134.891 150.566 137.534C153.331 143.258 160.54 139.017 164.456 140.536Z" fill="#263238"/>
<path d="M146.606 141.301C150.996 143.935 151.646 139.483 150.566 137.578C152.322 135.532 153.823 128.578 148.95 127.92C151.294 128.543 158.74 127.867 157.519 123.398C160.347 125.944 168.854 127.463 168.319 122.942C167.546 116.33 157.44 110.65 150.566 116.33C142.277 111.861 132.611 121.115 137.536 125.356C131.214 126.691 132.611 136.085 136.237 137.279C133.436 142.161 144.578 148.544 146.606 141.301Z" fill="#263238"/>
<path opacity="0.2" d="M156.027 134.32C155.008 133.968 153.891 134.031 152.919 134.496C153.956 134.642 155.012 134.582 156.027 134.32Z" fill="black"/>
<path opacity="0.2" d="M156.018 135.067C155.533 135.007 155.041 135.054 154.577 135.206C154.112 135.358 153.687 135.61 153.331 135.945C154.279 135.847 155.195 135.548 156.018 135.067Z" fill="black"/>
<path opacity="0.2" d="M163.613 126.489C161.015 126.275 158.402 126.331 155.816 126.656C160.162 126.726 163.613 126.489 163.613 126.489Z" fill="black"/>
<path opacity="0.2" d="M164.745 127.296C164.745 127.296 158.784 127.472 155.965 128.534C158.915 128.306 161.848 127.893 164.745 127.296Z" fill="black"/>
<path d="M140.679 143.408C141.362 144.27 142.208 144.988 143.17 145.521C144.131 146.055 145.188 146.393 146.281 146.516C149.214 146.823 149.872 144.444 148.915 141.827C148.037 139.474 145.104 136.41 142.348 137.27C139.591 138.131 139.029 141.256 140.679 143.408Z" fill="#FFB573"/>
<path d="M158.582 134.435C158.652 135.146 159.091 135.681 159.565 135.629C160.039 135.576 160.347 134.953 160.276 134.242C160.206 133.53 159.758 132.986 159.284 133.039C158.81 133.091 158.503 133.715 158.582 134.435Z" fill="#263238"/>
<path d="M166.001 133.838C166.071 134.549 166.51 135.093 166.984 135.032C167.458 134.97 167.766 134.356 167.695 133.644C167.625 132.933 167.177 132.389 166.703 132.442C166.229 132.494 165.922 133.118 166.001 133.838Z" fill="#263238"/>
<path d="M163.613 134.575L164.491 140.563C165.203 140.605 165.918 140.531 166.607 140.344C166.744 140.299 166.866 140.218 166.96 140.109C167.054 140 167.117 139.868 167.141 139.726C167.166 139.584 167.151 139.438 167.099 139.304C167.046 139.17 166.958 139.053 166.844 138.965C165.044 137.639 163.613 134.575 163.613 134.575Z" fill="#ED893E"/>
<path d="M154.727 132.556C154.656 132.552 154.587 132.531 154.525 132.494C154.479 132.463 154.439 132.424 154.408 132.377C154.378 132.331 154.356 132.279 154.346 132.224C154.335 132.169 154.335 132.113 154.347 132.059C154.358 132.004 154.38 131.952 154.411 131.906C154.769 131.335 155.257 130.858 155.836 130.513C156.414 130.168 157.067 129.965 157.739 129.922C157.855 129.922 157.967 129.968 158.049 130.05C158.132 130.133 158.178 130.244 158.178 130.361C158.178 130.477 158.132 130.589 158.049 130.671C157.967 130.754 157.855 130.8 157.739 130.8C157.204 130.839 156.686 131.006 156.228 131.285C155.77 131.565 155.385 131.949 155.105 132.407C155.059 132.461 155.001 132.503 154.935 132.529C154.869 132.555 154.798 132.564 154.727 132.556Z" fill="#263238"/>
<path d="M168.714 131.757C168.646 131.762 168.577 131.75 168.514 131.722C168.452 131.695 168.397 131.652 168.354 131.599C168.032 131.177 167.616 130.837 167.138 130.607C166.661 130.377 166.136 130.262 165.606 130.273C165.551 130.279 165.495 130.274 165.442 130.258C165.389 130.242 165.34 130.216 165.298 130.181C165.255 130.145 165.22 130.102 165.195 130.053C165.169 130.004 165.154 129.95 165.149 129.895C165.142 129.784 165.176 129.675 165.246 129.588C165.316 129.502 165.417 129.445 165.527 129.43C166.2 129.4 166.871 129.533 167.482 129.817C168.094 130.101 168.628 130.529 169.039 131.063C169.107 131.152 169.138 131.264 169.125 131.376C169.112 131.487 169.056 131.589 168.969 131.66C168.895 131.716 168.806 131.75 168.714 131.757Z" fill="#263238"/>
<path d="M147.405 154.163C147.405 154.163 153.718 161.187 161.453 161.591C156.94 163.724 153.682 168.308 153.682 168.308C153.682 168.308 145.456 166.297 143.629 156.016C144.85 154.585 147.405 154.163 147.405 154.163Z" fill="#EBEBEB"/>
<path d="M164.464 164.085L167.862 161.047L172.182 162.329C172.182 162.329 168.916 165.999 164.464 164.085Z" fill="#407BFF"/>
<path opacity="0.3" d="M164.464 164.085L167.862 161.047L172.182 162.329C172.182 162.329 168.916 165.999 164.464 164.085Z" fill="black"/>
<path d="M164.701 155.032C164.701 155.032 167.713 158.544 167.862 161.047C171.444 162.434 174.755 166.982 174.755 166.982C174.755 166.982 173.877 159.782 168.205 155.691C167.129 155.126 165.909 154.896 164.701 155.032Z" fill="#EBEBEB"/>
<path d="M126.043 383.944H128.976L129.766 382.75L131.302 383.953H148.994C149.104 382.561 148.844 381.164 148.239 379.906C148.239 379.906 142.971 379.423 140.916 376.789C140.844 376.686 140.743 376.606 140.626 376.559C140.509 376.512 140.381 376.501 140.258 376.525C138.502 376.894 131.478 378.22 127.65 376.833C127.555 376.792 127.451 376.776 127.348 376.785C127.245 376.794 127.146 376.829 127.059 376.885C126.973 376.941 126.901 377.018 126.851 377.108C126.801 377.199 126.774 377.3 126.772 377.403C126.694 379.599 126.451 381.786 126.043 383.944Z" fill="#407BFF"/>
<path d="M220.648 194.314C222.711 189.924 227.092 189.81 230.464 188.677C231.034 188.484 232.053 189.731 231.403 190.609C231.051 191.182 230.587 191.678 230.04 192.069C229.492 192.459 228.872 192.736 228.216 192.883C228.172 194.402 226.539 198.502 222.237 198.405C221.226 197.281 220.661 195.826 220.648 194.314Z" fill="#FFB573"/>
<path d="M165.869 143.267C165.869 143.267 163.42 142.705 156.51 142.618C157.194 144.084 158.968 145.181 162.506 145.252C165.351 145.383 165.869 143.267 165.869 143.267Z" fill="white"/>
<path d="M131.381 230.014L126.166 232.253C121.873 236.397 128.159 240.989 128.159 240.989L130.293 244.422C130.708 245.001 131.315 245.414 132.007 245.588C132.698 245.761 133.428 245.684 134.068 245.37L137.721 243.833C138.492 243.562 139.128 243 139.492 242.267C139.856 241.534 139.92 240.688 139.67 239.909L138.326 236.66C137.934 235.712 137.313 234.876 136.518 234.228L131.381 230.014Z" fill="#FFB573"/>
<path d="M294.588 151.29C289.241 142.677 291.357 137.602 297.222 136.583L320.674 145.407C329.015 155.478 312.772 154.89 321.78 162.915C330.788 170.94 304.782 181.142 291.998 170.659C279.215 160.175 299.927 159.903 294.588 151.29Z" fill="#263238"/>
<path d="M330.446 378.384L337.812 376.751C336.785 369.727 336.408 361.562 335.547 357.225L327.039 358.41L330.446 378.384Z" fill="#FFC3BD"/>
<path d="M276.335 379.579L283.271 379.517C283.912 372.493 286.388 364.117 286.625 359.692L278.056 359.481L276.335 379.579Z" fill="#FFC3BD"/>
<path d="M325.433 385.417C331.298 384.179 330.859 384.179 334.125 383.363C336.926 382.669 337.681 382.871 339.937 382.344C341.825 381.897 341.368 380.106 340.341 378.139C339.893 377.261 339.287 376.286 338.647 374.987C338.561 374.805 338.416 374.658 338.236 374.57C338.055 374.482 337.85 374.459 337.654 374.504L329.928 376.146C329.775 376.178 329.633 376.25 329.518 376.355C329.402 376.46 329.316 376.594 329.269 376.743C328.775 378.032 327.995 379.193 326.988 380.139C325.982 381.084 324.775 381.79 323.457 382.204C320.402 383.301 323.097 385.918 325.433 385.417Z" fill="#263238"/>
<path d="M267.274 385.417C271.558 385.417 274.394 385.031 277.722 384.917C280.576 384.82 280.962 385.417 283.868 385.417C285.773 385.417 286.309 383.275 285.826 381.659C285.357 380.433 284.958 379.182 284.632 377.91C284.595 377.728 284.494 377.564 284.348 377.448C284.202 377.333 284.019 377.272 283.833 377.278H275.861C275.711 377.283 275.564 377.321 275.43 377.389C275.297 377.458 275.18 377.555 275.088 377.673C274.109 379 272.84 380.085 271.378 380.845C269.915 381.606 268.298 382.023 266.65 382.063C263.402 382.318 264.921 385.417 267.274 385.417Z" fill="#263238"/>
<path d="M281.928 224.787C281.928 224.787 278.767 267.186 280.023 294.149C278.679 319.427 276.748 370.447 276.748 370.447C276.888 371.738 283.693 371.229 284.878 370.447C284.878 370.447 299.54 335.152 295.827 294.149C311.938 251.382 310.138 224.787 310.138 224.787H281.928Z" fill="#6482C4"/>
<path opacity="0.2" d="M297.907 241.803C300.418 242.215 307.153 247 308.031 250.021C306.264 260.268 303.788 270.381 300.62 280.285C296.564 269.012 295.897 252.743 297.907 241.803Z" fill="black"/>
<path d="M290.392 224.787C290.392 224.787 302.051 272.647 307.644 296.142C313.509 320.823 325.538 353.3 328.005 369.534C329.542 370.043 334.388 369.069 336.908 367.646C336.908 367.646 339.033 320.998 324.853 297.24C328.058 238.774 314.317 224.787 314.317 224.787H290.392Z" fill="#6482C4"/>
<path d="M326.618 366.338C326.828 367.449 326.96 368.572 327.013 369.701C327.014 369.796 327.034 369.89 327.073 369.977C327.112 370.063 327.168 370.141 327.238 370.205C327.308 370.27 327.39 370.319 327.48 370.35C327.57 370.381 327.665 370.393 327.759 370.386C331.131 370.219 335.661 368.454 337.128 367.866C337.261 367.813 337.375 367.719 337.452 367.598C337.529 367.476 337.566 367.334 337.558 367.19L337.391 364.003C337.385 363.899 337.356 363.797 337.307 363.706C337.257 363.614 337.188 363.534 337.104 363.473C337.02 363.411 336.924 363.368 336.822 363.347C336.72 363.326 336.614 363.329 336.513 363.353L327.136 365.539C326.964 365.581 326.815 365.687 326.718 365.836C326.622 365.984 326.586 366.164 326.618 366.338Z" fill="#263238"/>
<path opacity="0.1" d="M326.618 366.338C326.828 367.449 326.96 368.572 327.013 369.701C327.014 369.796 327.034 369.89 327.073 369.977C327.112 370.063 327.168 370.141 327.238 370.205C327.308 370.27 327.39 370.319 327.48 370.35C327.57 370.381 327.665 370.393 327.759 370.386C331.131 370.219 335.661 368.454 337.128 367.866C337.261 367.813 337.375 367.719 337.452 367.598C337.529 367.476 337.566 367.334 337.558 367.19L337.391 364.003C337.385 363.899 337.356 363.797 337.307 363.706C337.257 363.614 337.188 363.534 337.104 363.473C337.02 363.411 336.924 363.368 336.822 363.347C336.72 363.326 336.614 363.329 336.513 363.353L327.136 365.539C326.964 365.581 326.815 365.687 326.718 365.836C326.622 365.984 326.586 366.164 326.618 366.338Z" fill="white"/>
<path d="M275.984 366.848C275.922 367.726 275.791 369.297 275.659 370.448C275.639 370.63 275.691 370.813 275.804 370.957C275.918 371.102 276.083 371.196 276.265 371.22C279.265 371.484 282.284 371.466 285.282 371.168C285.427 371.153 285.564 371.094 285.675 370.998C285.785 370.902 285.862 370.774 285.896 370.632L286.643 367.489C286.669 367.387 286.672 367.281 286.652 367.179C286.632 367.076 286.59 366.979 286.527 366.895C286.465 366.81 286.385 366.741 286.292 366.692C286.2 366.643 286.097 366.615 285.993 366.611L276.756 366.242C276.574 366.222 276.391 366.274 276.247 366.387C276.102 366.501 276.008 366.666 275.984 366.848Z" fill="#263238"/>
<path opacity="0.1" d="M275.984 366.848C275.922 367.726 275.791 369.297 275.659 370.448C275.639 370.63 275.691 370.813 275.804 370.957C275.918 371.102 276.083 371.196 276.265 371.22C279.265 371.484 282.284 371.466 285.282 371.168C285.427 371.153 285.564 371.094 285.675 370.998C285.785 370.902 285.862 370.774 285.896 370.632L286.643 367.489C286.669 367.387 286.672 367.281 286.652 367.179C286.632 367.076 286.59 366.979 286.527 366.895C286.465 366.81 286.385 366.741 286.292 366.692C286.2 366.643 286.097 366.615 285.993 366.611L276.756 366.242C276.574 366.222 276.391 366.274 276.247 366.387C276.102 366.501 276.008 366.666 275.984 366.848Z" fill="white"/>
<path d="M291.428 187.007L290.848 187.973L290.304 188.851C289.944 189.413 289.566 189.939 289.197 190.466C288.451 191.529 287.652 192.538 286.844 193.53C285.213 195.514 283.453 197.388 281.576 199.141C280.698 200.019 279.671 200.897 278.705 201.713C277.74 202.53 276.704 203.338 275.641 204.075C273.542 205.604 271.335 206.98 269.039 208.193L268.723 208.36C267.919 208.8 266.998 208.978 266.089 208.869C264.702 208.702 263.344 208.351 262.05 207.824C260.842 207.324 259.693 206.691 258.626 205.937C257.632 205.24 256.709 204.449 255.869 203.575C255.064 202.753 254.322 201.872 253.647 200.941C252.379 199.206 251.29 197.347 250.399 195.392C249.96 194.444 249.573 193.478 249.222 192.512C248.877 191.512 248.584 190.495 248.344 189.465C248.186 188.82 248.258 188.14 248.548 187.542C248.838 186.944 249.327 186.466 249.932 186.19C250.536 185.914 251.218 185.858 251.859 186.031C252.501 186.205 253.062 186.596 253.445 187.139L253.612 187.376C254.051 188.017 254.596 188.798 255.105 189.5C255.614 190.203 256.167 190.905 256.711 191.581C257.761 192.89 258.912 194.114 260.153 195.242C261.218 196.25 262.425 197.096 263.735 197.754C264.725 198.26 265.82 198.525 266.931 198.526L263.946 199.202C265.705 198.027 267.399 196.758 269.021 195.401C270.658 194.025 272.218 192.559 273.692 191.011C275.176 189.465 276.616 187.859 277.95 186.182C278.626 185.304 279.259 184.496 279.899 183.644L280.777 182.362L281.208 181.739L281.568 181.203L281.796 180.861C282.611 179.58 283.901 178.676 285.383 178.346C286.865 178.017 288.417 178.29 289.698 179.105C290.979 179.92 291.883 181.21 292.212 182.692C292.542 184.174 292.269 185.726 291.454 187.007H291.428Z" fill="#FFC3BD"/>
<path d="M290.023 175.523C283.947 175.356 278.056 181.019 274.333 187.42C275.211 191.511 284.404 198.272 284.404 198.272C284.404 198.272 298.021 185.137 290.023 175.523Z" fill="#263238"/>
<path d="M280.093 186.682C279.914 191.62 279.987 196.564 280.312 201.494C280.558 207.921 280.997 214.242 281.928 224.787H314.3C313.641 215.674 314.703 205.278 320.516 184.768C320.859 183.695 320.958 182.559 320.805 181.443C320.653 180.327 320.252 179.26 319.634 178.319C319.015 177.377 318.193 176.587 317.229 176.004C316.266 175.422 315.183 175.062 314.062 174.952C312.781 174.82 311.428 174.715 310.024 174.645C305.131 174.297 300.219 174.297 295.326 174.645C293.728 174.794 292.077 174.996 290.488 175.215C287.696 175.627 285.132 176.995 283.236 179.087C281.34 181.178 280.229 183.863 280.093 186.682Z" fill="#263238"/>
<path d="M308.988 158.094C307.706 162.827 306.134 171.493 309.207 174.645C309.207 174.645 304.729 173.977 295.221 179.86C292.464 175.909 294.509 174.645 294.509 174.645C299.874 173.389 300.032 169.473 299.391 165.803L308.988 158.094Z" fill="#FFC3BD"/>
<path d="M297.231 178.675C300.357 179.114 301.34 183.846 301.34 183.846C301.34 183.846 308.865 178.526 311.244 174.777C310.299 174.239 309.381 173.652 308.496 173.021C308.496 173.021 299.057 176.866 297.231 178.675Z" fill="white"/>
<path d="M294.246 178.166C294.246 178.166 291.542 178.894 290.567 182.705C289.847 175.804 293.069 174.636 293.069 174.636C293.929 174.155 294.936 174.009 295.897 174.223C295.207 174.587 294.666 175.179 294.365 175.899C294.063 176.618 294.022 177.419 294.246 178.166Z" fill="white"/>
<path opacity="0.2" d="M305.081 161.238L299.4 165.795C299.566 166.663 299.655 167.545 299.663 168.429C301.7 168.13 304.633 165.918 305.002 163.81C305.183 162.965 305.21 162.093 305.081 161.238Z" fill="black"/>
<path d="M313.035 148.612C311.595 156.242 311.148 159.499 306.793 163.161C300.243 168.666 291.234 165.751 290.374 157.972C289.601 150.948 292.077 139.657 299.944 137.128C301.617 136.531 303.418 136.392 305.163 136.725C306.907 137.058 308.53 137.851 309.865 139.022C311.2 140.193 312.198 141.7 312.755 143.386C313.312 145.072 313.409 146.876 313.035 148.612Z" fill="#FFC3BD"/>
<path d="M313.228 152.616C308.636 154.433 305.634 147.119 306.995 142.08C299.022 145.794 285.923 140.403 287.916 135.108C290.866 137.33 292.631 136.601 292.631 136.601C292.631 136.601 317.32 120.797 315.406 134.766C329.182 140.253 321.438 149.973 313.228 152.616Z" fill="#263238"/>
<path d="M295.686 130.341C294.386 131.219 295.264 134.634 302.016 131.552L304.536 130.92C298.996 135.74 293.947 138.919 291.278 136.934C288.609 134.95 290.795 129.454 295.686 130.341Z" fill="#263238"/>
<path d="M300.936 149.912C300.84 150.561 300.436 151.062 300.058 151.027C299.681 150.992 299.382 150.447 299.47 149.806C299.558 149.165 299.979 148.656 300.392 148.691C300.805 148.726 301.033 149.236 300.936 149.912Z" fill="#263238"/>
<path d="M293.184 149.42C293.087 150.07 292.674 150.561 292.262 150.535C291.849 150.509 291.595 149.956 291.682 149.306C291.77 148.656 292.183 148.164 292.604 148.2C293.026 148.235 293.228 148.77 293.184 149.42Z" fill="#263238"/>
<path d="M292.736 148.243L291.278 147.681C291.278 147.681 291.884 148.954 292.736 148.243Z" fill="#263238"/>
<path d="M295.159 150.324C294.382 151.767 293.423 153.103 292.306 154.302C292.602 154.562 292.953 154.751 293.334 154.855C293.714 154.958 294.113 154.973 294.501 154.899L295.159 150.324Z" fill="#ED847E"/>
<path d="M297.802 157.813C297.443 157.844 297.081 157.844 296.722 157.813C296.698 157.813 296.674 157.807 296.652 157.795C296.63 157.784 296.611 157.769 296.596 157.749C296.581 157.73 296.57 157.708 296.564 157.684C296.559 157.66 296.559 157.635 296.564 157.611C296.57 157.561 296.596 157.515 296.635 157.482C296.674 157.45 296.724 157.433 296.775 157.436C297.587 157.497 298.403 157.376 299.163 157.082C299.922 156.787 300.606 156.326 301.165 155.733C301.2 155.699 301.247 155.681 301.296 155.681C301.345 155.681 301.392 155.699 301.428 155.733C301.461 155.768 301.48 155.815 301.48 155.864C301.48 155.913 301.461 155.96 301.428 155.996C300.486 157.029 299.194 157.677 297.802 157.813Z" fill="#263238"/>
<path d="M314.589 154.301C314.262 154.969 313.797 155.56 313.225 156.035C312.653 156.51 311.987 156.859 311.27 157.058C309.514 157.489 308.768 155.434 309.409 153.415C309.989 151.597 311.613 149.183 313.334 149.666C315.055 150.148 315.529 152.545 314.589 154.301Z" fill="#FFC3BD"/>
<path d="M303.184 145.399C303.128 145.402 303.073 145.395 303.02 145.377C302.967 145.359 302.918 145.33 302.877 145.293C302.496 144.936 302.042 144.666 301.546 144.502C301.05 144.339 300.524 144.285 300.006 144.345C299.954 144.358 299.9 144.361 299.847 144.353C299.794 144.345 299.743 144.327 299.697 144.299C299.652 144.271 299.612 144.234 299.58 144.191C299.549 144.148 299.526 144.099 299.514 144.047C299.509 143.937 299.546 143.829 299.618 143.746C299.69 143.663 299.791 143.61 299.9 143.599C300.557 143.513 301.224 143.572 301.855 143.772C302.487 143.973 303.066 144.309 303.553 144.758C303.588 144.795 303.615 144.84 303.631 144.888C303.648 144.937 303.653 144.989 303.647 145.04C303.641 145.091 303.624 145.14 303.598 145.184C303.571 145.228 303.534 145.265 303.491 145.293C303.404 145.363 303.296 145.4 303.184 145.399Z" fill="#263238"/>
<path d="M311.411 241.812C318.496 237.817 325.257 231.434 331.833 223.69C324.318 213.093 316.705 203.689 308.821 197.745C301.937 204.953 295.115 211.179 288.39 215.858C295.993 222.233 303.72 231.68 311.411 241.812Z" fill="white"/>
<path d="M291.261 145.399C291.215 145.408 291.168 145.407 291.123 145.397C291.077 145.386 291.034 145.366 290.998 145.337C290.921 145.272 290.872 145.18 290.863 145.08C290.853 144.98 290.882 144.88 290.945 144.802C291.304 144.304 291.773 143.896 292.315 143.609C292.857 143.321 293.457 143.161 294.071 143.142C294.12 143.144 294.168 143.156 294.213 143.178C294.257 143.2 294.296 143.231 294.328 143.269C294.359 143.307 294.382 143.352 294.395 143.4C294.409 143.447 294.412 143.497 294.404 143.546C294.391 143.646 294.342 143.738 294.266 143.804C294.19 143.871 294.092 143.907 293.991 143.906C293.505 143.927 293.03 144.058 292.602 144.291C292.174 144.524 291.806 144.852 291.524 145.249C291.494 145.292 291.455 145.328 291.41 145.354C291.364 145.38 291.313 145.395 291.261 145.399Z" fill="#263238"/>
<path d="M315.418 241.911L333.862 225.38C334.483 224.823 334.535 223.869 333.979 223.248L311.962 198.684C311.405 198.063 310.45 198.01 309.829 198.567L291.385 215.099C290.764 215.655 290.712 216.61 291.269 217.231L313.285 241.795C313.842 242.416 314.797 242.468 315.418 241.911Z" fill="#FF6584"/>
<path d="M300.533 148.7L299.075 148.146C299.075 148.146 299.681 149.411 300.533 148.7Z" fill="#263238"/>
<path d="M301.656 230.547L302.341 228.229C302.466 227.803 302.691 227.413 302.996 227.091C303.301 226.769 303.679 226.524 304.097 226.376L308.11 224.998C308.901 224.727 309.745 224.649 310.573 224.77C311.4 224.891 312.187 225.206 312.868 225.691L313.746 226.306C312.868 230.222 309.032 233.813 309.032 233.813L308.057 234.954C307.862 235.195 307.622 235.394 307.35 235.541C307.078 235.687 306.779 235.779 306.471 235.81C306.164 235.841 305.853 235.811 305.557 235.721C305.261 235.632 304.986 235.484 304.747 235.288L302.455 233.374C302.063 233.03 301.779 232.581 301.637 232.079C301.495 231.577 301.502 231.045 301.656 230.547Z" fill="#FFC3BD"/>
<path d="M246.948 181.168L249.328 181.537C249.77 181.606 250.19 181.78 250.552 182.044C250.914 182.308 251.208 182.655 251.408 183.056L253.305 186.858C253.68 187.605 253.871 188.431 253.86 189.267C253.849 190.102 253.638 190.923 253.243 191.66L252.752 192.591C248.757 192.24 244.692 188.912 244.692 188.912L243.427 188.096C243.164 187.934 242.935 187.722 242.753 187.471C242.571 187.221 242.441 186.937 242.369 186.636C242.297 186.335 242.286 186.023 242.335 185.717C242.384 185.412 242.493 185.119 242.655 184.856L244.244 182.336C244.534 181.902 244.944 181.56 245.424 181.353C245.904 181.146 246.433 181.082 246.948 181.168Z" fill="#FFC3BD"/>
<path d="M240.354 195.067C240.32 195.066 240.287 195.058 240.257 195.043C240.226 195.028 240.2 195.006 240.179 194.979C239.799 194.395 239.646 193.693 239.749 193.004C239.828 192.658 239.976 192.333 240.184 192.046C240.393 191.759 240.656 191.518 240.96 191.335C240.983 191.321 241.008 191.311 241.034 191.306C241.06 191.301 241.087 191.302 241.114 191.307C241.14 191.313 241.164 191.324 241.186 191.339C241.208 191.355 241.227 191.374 241.241 191.397C241.256 191.419 241.267 191.443 241.272 191.469C241.278 191.495 241.278 191.522 241.273 191.548C241.268 191.574 241.258 191.599 241.244 191.622C241.229 191.644 241.21 191.663 241.189 191.678C240.931 191.829 240.706 192.03 240.528 192.27C240.35 192.51 240.222 192.783 240.152 193.074C240.071 193.656 240.202 194.248 240.521 194.742C240.541 194.773 240.553 194.809 240.555 194.846C240.557 194.883 240.549 194.92 240.532 194.953C240.515 194.986 240.49 195.014 240.458 195.034C240.427 195.054 240.391 195.065 240.354 195.067Z" fill="#E0E0E0"/>
<path d="M244.894 184.153L248.107 187.665C248.207 187.766 248.263 187.901 248.263 188.043C248.263 188.184 248.207 188.32 248.107 188.42L243.787 192.363C243.723 192.421 243.645 192.462 243.561 192.484C243.477 192.505 243.389 192.506 243.304 192.486L240.504 191.809C240.4 191.784 240.307 191.727 240.237 191.647C240.166 191.567 240.121 191.468 240.109 191.362L239.626 188.543C239.615 188.457 239.624 188.369 239.653 188.287C239.682 188.204 239.73 188.13 239.792 188.069L244.112 184.136C244.163 184.083 244.225 184.042 244.293 184.015C244.361 183.987 244.433 183.974 244.507 183.975C244.58 183.977 244.652 183.994 244.719 184.024C244.785 184.055 244.845 184.099 244.894 184.153ZM240.67 191.248C240.732 191.314 240.805 191.367 240.887 191.405C240.969 191.443 241.057 191.465 241.147 191.468C241.237 191.472 241.327 191.458 241.412 191.427C241.497 191.396 241.574 191.348 241.641 191.287C241.707 191.226 241.761 191.152 241.798 191.071C241.836 190.989 241.858 190.9 241.861 190.81C241.865 190.72 241.851 190.63 241.82 190.546C241.789 190.461 241.741 190.383 241.68 190.317C241.617 190.253 241.542 190.202 241.459 190.167C241.376 190.132 241.287 190.114 241.197 190.114C241.107 190.114 241.018 190.132 240.935 190.167C240.852 190.202 240.777 190.253 240.714 190.317C240.645 190.374 240.588 190.445 240.546 190.525C240.504 190.605 240.478 190.692 240.47 190.782C240.462 190.871 240.472 190.962 240.498 191.048C240.525 191.134 240.569 191.214 240.627 191.283L240.67 191.248Z" fill="#263238"/>
<path d="M240.433 194.479C240.888 194.574 241.295 194.826 241.583 195.191C241.87 195.556 242.02 196.011 242.005 196.475C241.99 196.94 241.812 197.384 241.503 197.73C241.193 198.077 240.771 198.303 240.311 198.368L239.318 202.978L238.871 203.268L238.528 202.732V201.784L238.774 201.046L238.677 200.563L238.818 199.905V199.282V198.869L238.923 198.079C238.58 197.865 238.311 197.55 238.154 197.178C237.997 196.805 237.959 196.393 238.045 195.998C238.1 195.74 238.206 195.496 238.356 195.28C238.507 195.063 238.699 194.879 238.921 194.738C239.143 194.596 239.391 194.501 239.651 194.456C239.911 194.412 240.177 194.419 240.433 194.479ZM240.065 196.235C240.236 196.258 240.409 196.217 240.551 196.118C240.692 196.019 240.791 195.87 240.827 195.702C240.864 195.533 240.836 195.357 240.748 195.208C240.66 195.06 240.52 194.95 240.354 194.9C240.176 194.864 239.991 194.898 239.838 194.997C239.686 195.095 239.578 195.25 239.538 195.427C239.514 195.597 239.555 195.77 239.652 195.912C239.75 196.053 239.897 196.153 240.065 196.191V196.235Z" fill="#407BFF"/>
<path d="M240.354 195.067C240.318 195.068 240.283 195.058 240.251 195.04C240.22 195.021 240.195 194.994 240.179 194.962C240.163 194.939 240.153 194.914 240.148 194.887C240.143 194.86 240.144 194.832 240.151 194.805C240.157 194.779 240.169 194.754 240.186 194.733C240.203 194.711 240.225 194.693 240.249 194.681C240.737 194.36 241.097 193.879 241.268 193.32C241.323 193.026 241.319 192.724 241.256 192.431C241.192 192.138 241.071 191.861 240.899 191.617C240.885 191.594 240.875 191.568 240.871 191.541C240.867 191.515 240.868 191.488 240.875 191.461C240.881 191.435 240.893 191.411 240.909 191.389C240.925 191.367 240.946 191.349 240.969 191.336C241.015 191.308 241.069 191.3 241.122 191.311C241.174 191.322 241.22 191.353 241.25 191.397C241.451 191.689 241.591 192.018 241.662 192.365C241.733 192.712 241.733 193.069 241.663 193.417C241.476 194.086 241.047 194.661 240.46 195.032C240.43 195.055 240.392 195.068 240.354 195.067Z" fill="#E0E0E0"/>
<path d="M323.633 183.275C323.922 183.908 324.116 184.355 324.335 184.882C324.555 185.409 324.739 185.892 324.932 186.392C325.318 187.402 325.652 188.421 325.977 189.43C326.615 191.474 327.149 193.548 327.575 195.646C328.015 197.765 328.325 199.908 328.506 202.065C328.698 204.254 328.745 206.454 328.646 208.65V209.027C328.634 209.267 328.599 209.505 328.541 209.738C328.194 211.047 327.678 212.304 327.004 213.479C326.448 214.446 325.839 215.381 325.178 216.279C323.962 217.922 322.639 219.482 321.218 220.95C319.831 222.373 318.409 223.716 316.942 224.998C315.476 226.28 313.983 227.483 312.35 228.642C311.798 229.026 311.13 229.204 310.46 229.147C309.79 229.089 309.162 228.799 308.683 228.327C308.205 227.855 307.906 227.23 307.84 226.561C307.774 225.892 307.944 225.221 308.32 224.664V224.603L311.437 220.09C312.465 218.58 313.483 217.087 314.431 215.586C315.379 214.084 316.284 212.583 317.065 211.152C317.423 210.48 317.743 209.788 318.022 209.08C318.225 208.594 318.361 208.083 318.426 207.561L318.312 208.65C318.163 206.894 317.978 205.182 317.662 203.426C317.346 201.67 316.977 199.914 316.521 198.158C316.064 196.402 315.555 194.646 314.984 192.942C314.703 192.064 314.396 191.186 314.106 190.378L313.641 189.123L313.211 187.99L313.097 187.692C312.606 186.314 312.662 184.801 313.252 183.463C313.842 182.124 314.921 181.063 316.269 180.496C317.617 179.928 319.131 179.898 320.5 180.412C321.87 180.926 322.99 181.944 323.633 183.258V183.275Z" fill="#FFC3BD"/>
<path d="M314.361 174.996C319.629 175.804 321.745 177.411 326.047 187.999C324.098 191.95 314.949 195.726 314.949 195.726C314.949 195.726 307.644 184.312 314.361 174.996Z" fill="#263238"/>
</svg>
