<svg width="244" height="300" viewBox="0 0 244 300" fill="none" xmlns="http://www.w3.org/2000/svg">
<g clip-path="url(#clip0_608_197)">
<path d="M125.45 53.443C137.989 53.443 148.154 42.9384 148.154 29.9803C148.154 17.0222 137.989 6.51758 125.45 6.51758C112.91 6.51758 102.745 17.0222 102.745 29.9803C102.745 42.9384 112.91 53.443 125.45 53.443Z" fill="#FF6584"/>
<path d="M95.5267 286.125L83.3307 299.392C62.4822 220.203 61.1038 143.738 84.3943 70.7252L99.7901 70.8015L100.615 71.6429L121.977 93.4334L134.375 106.083L134.037 108.508L132.866 116.847L130.295 135.186L127.49 155.194L124.685 175.199L121.879 195.207L119.605 211.44L119.488 212.26L119.074 215.216L116.269 235.224L113.777 252.996L113.463 255.228L111.398 269.955L110.541 276.07L95.6364 286.007L95.5267 286.125Z" fill="#CCCCCC"/>
<path d="M226.142 56.8591V84.7926L213.48 93.6135L194.879 106.564L174.209 120.962L141.771 104.201L100.786 83.0258L92.2499 78.6154L83.7142 71.5569L110.07 47.2368L117.639 40.2527C126.58 32.0034 138.146 27.4438 150.132 27.4438H197.678C201.416 27.4438 205.117 28.2047 208.57 29.683C212.024 31.1612 215.162 33.3279 217.805 36.0594C220.448 38.7908 222.545 42.0336 223.975 45.6024C225.406 49.1712 226.142 52.9963 226.142 56.8591Z" fill="#5677C0"/>
<path d="M213.593 71.4312L226.142 57.3359C248.083 140.977 249.876 221.837 226.142 299.176H210.22L209.363 298.291L187.167 275.357L174.284 262.044L174.623 259.478L175.793 250.653L178.364 231.244L181.169 210.069L183.973 188.898L186.778 167.722L189.052 150.543L189.169 149.675L189.583 146.547L192.388 125.372L194.879 106.564L195.193 104.201L197.258 88.6151L198.115 82.1442L213.48 71.5565L213.593 71.4312Z" fill="#CCCCCC"/>
<path d="M83.7129 71.5557H213.48V299.178H83.7129C69.5437 215.891 65.9819 138.154 83.7129 71.5557Z" fill="#F2F2F2"/>
<path d="M157.988 243.596H134.083V299.178H157.988V243.596Z" fill="#CCCCCC"/>
<path d="M197.259 210.07H98.2263V231.244H197.259V210.07Z" fill="#3F3D56"/>
<path d="M204.823 260.662H162.599V269.69H204.823V260.662Z" fill="#3F3D56"/>
<path d="M129.582 260.662H87.3582V269.69H129.582V260.662Z" fill="#3F3D56"/>
<path d="M197.259 167.722H98.2263V188.896H197.259V167.722Z" fill="#3F3D56"/>
<path d="M197.259 125.374H98.2263V146.548H197.259V125.374Z" fill="#3F3D56"/>
<path d="M197.259 83.0249H98.2263V104.199H197.259V83.0249Z" fill="#3F3D56"/>
<path d="M225.691 298.397H82.0693V299.405H225.691V298.397Z" fill="#3F3D56"/>
<path d="M59.01 120.711C59.01 120.711 43.3933 120.568 24.048 120.659C14.7515 120.702 6.28683 120.793 0 120.879V109.704C6.76336 104.352 15.6836 100.089 23.9811 104.918C40.2833 114.413 59.01 120.711 59.01 120.711Z" fill="#F2F2F2"/>
<path d="M94.2752 17.8493C74.9312 17.9414 59.1859 18.2368 59.1859 18.2368C59.1859 18.2368 77.9016 -7.3824 94.205 2.10931C110.508 11.601 129.237 17.9031 129.237 17.9031C129.237 17.9031 113.619 17.7571 94.2752 17.8493Z" fill="#F2F2F2"/>
<path d="M147.92 26.6143L199.831 23.9912C206.991 23.6294 214.019 26.0725 219.511 30.8323C225.004 35.5922 228.556 42.3183 229.459 49.6669L235.756 100.927L213.639 71.4574L213.593 71.4315L147.41 35.9578L146.097 35.254C142.079 33.1012 143.4 26.8429 147.92 26.6143Z" fill="#5677C0"/>
<path d="M174.309 44.2437H132.085V53.2716H174.309V44.2437Z" fill="#F2F2F2"/>
<path d="M158.007 237.862H138.36C124.677 182.66 124.677 128.519 138.36 75.4399H158.007C170.514 130.513 170.962 184.687 158.007 237.862Z" fill="#F2F2F2"/>
<path d="M158.007 237.862H138.36C124.677 182.66 124.677 128.519 138.36 75.4399H158.007C170.514 130.513 170.962 184.687 158.007 237.862Z" fill="#F2F2F2"/>
</g>
<defs>
<clipPath id="clip0_608_197">
<rect width="243.277" height="299.405" fill="white"/>
</clipPath>
</defs>
</svg>
