<svg width="344" height="292" viewBox="0 0 344 292" fill="none" xmlns="http://www.w3.org/2000/svg">
<g clip-path="url(#clip0_608_174)">
<path d="M263.867 270.163H108.27C107.306 270.162 106.381 269.778 105.699 269.094C105.017 268.41 104.633 267.482 104.632 266.515V159.967C104.633 159 105.017 158.072 105.699 157.388C106.381 156.704 107.306 156.319 108.27 156.318H263.867C264.832 156.319 265.756 156.704 266.438 157.388C267.12 158.072 267.504 159 267.505 159.967V266.515C267.504 267.482 267.12 268.41 266.438 269.094C265.756 269.778 264.832 270.162 263.867 270.163Z" fill="white"/>
<path d="M263.867 270.163H108.27C107.306 270.162 106.381 269.778 105.699 269.094C105.017 268.41 104.633 267.482 104.632 266.515V159.967C104.633 159 105.017 158.072 105.699 157.388C106.381 156.704 107.306 156.319 108.27 156.318H263.867C264.832 156.319 265.756 156.704 266.438 157.388C267.12 158.072 267.504 159 267.505 159.967V266.515C267.504 267.482 267.12 268.41 266.438 269.094C265.756 269.778 264.832 270.162 263.867 270.163ZM108.27 157.129C107.52 157.13 106.801 157.429 106.27 157.961C105.74 158.493 105.441 159.215 105.441 159.967V266.515C105.441 267.267 105.74 267.989 106.27 268.521C106.801 269.053 107.52 269.352 108.27 269.353H263.867C264.617 269.352 265.336 269.053 265.867 268.521C266.398 267.989 266.696 267.267 266.697 266.515V159.967C266.696 159.215 266.398 158.493 265.867 157.961C265.336 157.429 264.617 157.13 263.867 157.129H108.27Z" fill="#3F3D56"/>
<path d="M204.08 269.522H168.057V209.718C168.059 208.299 168.621 206.939 169.622 205.936C170.622 204.933 171.978 204.369 173.392 204.368H198.745C200.16 204.369 201.516 204.933 202.516 205.936C203.516 206.939 204.078 208.299 204.08 209.718V269.522Z" fill="#E6E6E6"/>
<path d="M255.381 133.606H234.809V99.1296C234.81 98.1622 235.194 97.2348 235.876 96.5508C236.558 95.8668 237.483 95.4821 238.447 95.481H251.743C252.707 95.4821 253.632 95.8668 254.314 96.5508C254.996 97.2348 255.38 98.1622 255.381 99.1296V133.606Z" fill="white"/>
<path d="M255.381 133.606H234.809V99.1296C234.81 98.1622 235.194 97.2348 235.876 96.5508C236.558 95.8668 237.483 95.4821 238.447 95.481H251.743C252.707 95.4821 253.632 95.8668 254.314 96.5508C254.996 97.2348 255.38 98.1622 255.381 99.1296V133.606ZM235.618 132.796H254.572V99.1296C254.572 98.3772 254.273 97.6559 253.743 97.1239C253.212 96.5919 252.493 96.2926 251.743 96.2918H238.447C237.697 96.2926 236.978 96.5919 236.447 97.1239C235.917 97.6559 235.618 98.3772 235.618 99.1296V132.796Z" fill="#3F3D56"/>
<path d="M139.396 148.124C161.275 148.124 179.01 130.339 179.01 108.399C179.01 86.4587 161.275 68.6729 139.396 68.6729C117.518 68.6729 99.7825 86.4587 99.7825 108.399C99.7825 130.339 117.518 148.124 139.396 148.124Z" fill="#F2F2F2"/>
<path d="M245.712 89.4369C242.144 89.3244 238.968 86.0613 238.943 82.4819C238.917 78.9025 242.046 75.5943 245.612 75.4307C253.551 75.0666 260.052 66.5223 258.304 58.747C256.557 50.9718 247.031 46.0492 239.703 49.1351C234.082 51.5023 228.401 44.0436 229.826 38.0989C231.251 32.1542 236.642 28.1622 241.63 24.647C246.619 21.1317 251.955 17.0044 253.159 11.0108C254.363 5.01721 248.199 -2.16245 242.768 0.615834" fill="#E6E6E6"/>
<path d="M152.842 221.74H122.413C121.2 221.738 120.036 221.254 119.178 220.393C118.32 219.533 117.837 218.366 117.835 217.148V191.992C117.837 190.775 118.32 189.608 119.178 188.747C120.036 187.886 121.2 187.402 122.413 187.401H152.842C154.056 187.402 155.22 187.886 156.078 188.747C156.936 189.608 157.419 190.775 157.42 191.992V217.148C157.419 218.366 156.936 219.533 156.078 220.393C155.22 221.254 154.056 221.738 152.842 221.74Z" fill="#E6E6E6"/>
<path d="M250.428 221.74H219.999C218.785 221.738 217.622 221.254 216.763 220.393C215.905 219.533 215.422 218.366 215.421 217.148V191.992C215.422 190.775 215.905 189.608 216.763 188.747C217.622 187.886 218.785 187.402 219.999 187.401H250.428C251.642 187.402 252.805 187.886 253.663 188.747C254.522 189.608 255.004 190.775 255.006 191.992V217.148C255.004 218.366 254.522 219.533 253.663 220.393C252.805 221.254 251.642 221.738 250.428 221.74Z" fill="#E6E6E6"/>
<path d="M93.015 158.509V142.116C93.015 140.857 93.3469 139.62 93.9772 138.531C94.6074 137.442 95.5136 136.539 96.6038 135.914L187.431 83.8552C188.558 83.209 189.84 82.8841 191.139 82.9157C192.437 82.9473 193.702 83.3341 194.797 84.0344L275.829 135.865C276.839 136.51 277.669 137.401 278.245 138.453C278.82 139.506 279.122 140.687 279.122 141.888V158.509C279.122 160.404 278.372 162.221 277.036 163.561C275.7 164.901 273.888 165.653 271.998 165.653H100.139C98.2494 165.653 96.4375 164.901 95.1015 163.561C93.7655 162.221 93.015 160.404 93.015 158.509Z" fill="#6482C4"/>
<path opacity="0.2" d="M271.998 158.355H100.139C98.2494 158.355 96.4374 157.602 95.1015 156.262C93.7656 154.923 93.015 153.106 93.015 151.211V157.697C93.015 159.592 93.7656 161.409 95.1015 162.749C96.4374 164.088 98.2494 164.841 100.139 164.841H271.998C273.888 164.841 275.7 164.088 277.036 162.749C278.372 161.409 279.122 159.592 279.122 157.697V151.211C279.122 153.106 278.372 154.923 277.036 156.262C275.7 157.602 273.888 158.355 271.998 158.355Z" fill="black"/>
<path d="M285.952 214.452C285.952 201.881 296.115 172.05 308.651 172.05C321.186 172.05 331.349 201.881 331.349 214.452C331.349 220.489 328.957 226.279 324.701 230.548C320.444 234.816 314.67 237.215 308.651 237.215C302.631 237.215 296.857 234.816 292.601 230.548C288.344 226.279 285.952 220.489 285.952 214.452Z" fill="#F2F2F2"/>
<path d="M308.65 269.68C308.543 269.68 308.44 269.637 308.365 269.561C308.289 269.485 308.246 269.382 308.246 269.274V187.541C308.246 187.434 308.289 187.33 308.365 187.254C308.44 187.178 308.543 187.136 308.65 187.136C308.758 187.136 308.861 187.178 308.936 187.254C309.012 187.33 309.055 187.434 309.055 187.541V269.274C309.055 269.382 309.012 269.485 308.936 269.561C308.861 269.637 308.758 269.68 308.65 269.68Z" fill="#3F3D56"/>
<path d="M308.65 223.786C308.571 223.786 308.494 223.763 308.428 223.719C308.362 223.676 308.31 223.613 308.279 223.54C308.248 223.467 308.238 223.387 308.253 223.309C308.267 223.231 308.303 223.159 308.358 223.101L319.896 210.959C319.933 210.92 319.977 210.889 320.025 210.868C320.074 210.846 320.126 210.834 320.179 210.833C320.232 210.832 320.285 210.841 320.335 210.86C320.384 210.879 320.429 210.908 320.468 210.945C320.506 210.982 320.537 211.026 320.559 211.074C320.58 211.123 320.592 211.175 320.593 211.229C320.594 211.282 320.585 211.335 320.566 211.385C320.547 211.434 320.518 211.48 320.481 211.518L308.943 223.661C308.905 223.7 308.86 223.732 308.81 223.754C308.759 223.775 308.705 223.786 308.65 223.786Z" fill="#3F3D56"/>
<path d="M308.65 203.314C308.549 203.315 308.452 203.277 308.378 203.208L298.406 194.066C298.367 194.03 298.335 193.986 298.312 193.938C298.29 193.89 298.277 193.838 298.274 193.784C298.272 193.731 298.28 193.678 298.298 193.628C298.316 193.578 298.344 193.531 298.38 193.492C298.416 193.453 298.459 193.421 298.507 193.398C298.555 193.376 298.608 193.363 298.661 193.361C298.714 193.358 298.767 193.367 298.817 193.385C298.867 193.403 298.913 193.431 298.952 193.467L308.923 202.61C308.983 202.665 309.025 202.737 309.044 202.817C309.063 202.896 309.057 202.98 309.027 203.056C308.998 203.132 308.946 203.197 308.879 203.244C308.811 203.29 308.732 203.314 308.65 203.314Z" fill="#3F3D56"/>
<path d="M8.90503 189.44C8.90503 170.947 23.8542 127.064 42.2949 127.064C60.7356 127.064 75.6848 170.947 75.6848 189.44C75.6848 198.32 72.1669 206.837 65.9051 213.117C59.6433 219.396 51.1505 222.924 42.2949 222.924C33.4394 222.924 24.9465 219.396 18.6847 213.117C12.4229 206.837 8.90503 198.32 8.90503 189.44Z" fill="#5677C0"/>
<path d="M42.2949 270.49C42.1877 270.49 42.0848 270.448 42.009 270.372C41.9332 270.296 41.8906 270.192 41.8906 270.085V149.852C41.8906 149.745 41.9332 149.642 42.009 149.566C42.0848 149.489 42.1877 149.447 42.2949 149.447C42.4021 149.447 42.5049 149.489 42.5807 149.566C42.6565 149.642 42.6991 149.745 42.6991 149.852V270.085C42.6991 270.192 42.6565 270.296 42.5807 270.372C42.5049 270.448 42.4021 270.49 42.2949 270.49Z" fill="#3F3D56"/>
<path d="M42.2949 202.979C42.2157 202.979 42.1383 202.956 42.0723 202.912C42.0062 202.868 41.9544 202.806 41.9233 202.733C41.8921 202.66 41.883 202.58 41.897 202.502C41.9111 202.423 41.9477 202.351 42.0023 202.294L58.9757 184.432C59.0497 184.354 59.1515 184.309 59.2587 184.306C59.3659 184.304 59.4697 184.344 59.5473 184.418C59.6249 184.492 59.67 184.594 59.6726 184.702C59.6752 184.809 59.6351 184.913 59.5611 184.991L42.5876 202.853C42.5498 202.893 42.5044 202.925 42.4541 202.946C42.4038 202.968 42.3496 202.979 42.2949 202.979Z" fill="#3F3D56"/>
<path d="M42.2948 172.864C42.1939 172.865 42.0966 172.827 42.0221 172.758L27.3536 159.309C27.2745 159.237 27.2274 159.135 27.2226 159.028C27.2178 158.921 27.2557 158.816 27.3281 158.736C27.4004 158.657 27.5013 158.61 27.6084 158.605C27.7155 158.6 27.8201 158.638 27.8992 158.711L42.5677 172.16C42.6279 172.215 42.67 172.287 42.6885 172.367C42.7071 172.446 42.7013 172.53 42.6717 172.606C42.6422 172.682 42.5905 172.748 42.5232 172.794C42.4559 172.84 42.3763 172.864 42.2948 172.864Z" fill="#3F3D56"/>
<path d="M292.795 269.64C292.833 269.669 292.873 269.696 292.912 269.725H325.782C326.426 267.108 326.654 264.488 325.692 262.213C324.321 258.971 320.264 256.948 317.039 258.34C316.275 258.679 315.609 259.207 315.105 259.875C313.844 257.612 311.583 255.906 308.974 255.908C305.704 255.911 302.986 258.592 302.099 261.689C300.67 259.271 297.849 257.581 295.091 258.308C290.478 259.524 289.021 266.715 292.795 269.64Z" fill="#E6E6E6"/>
<path d="M10.406 270.363C10.4832 270.423 10.5647 270.477 10.6428 270.536H76.9989C78.2991 265.253 78.7582 259.964 76.8161 255.372C74.0489 248.827 65.8595 244.742 59.3487 247.553C57.8061 248.236 56.4624 249.303 55.4439 250.651C52.8995 246.083 48.3354 242.64 43.0672 242.644C36.467 242.648 30.9793 248.061 29.1884 254.313C26.3047 249.432 20.6086 246.021 15.0409 247.488C5.72897 249.942 2.78763 264.459 10.406 270.363Z" fill="#E6E6E6"/>
<path d="M343.605 269.354L0 270.006L0.0015298 270.817L343.606 270.165L343.605 269.354Z" fill="#3F3D56"/>
</g>
<defs>
<clipPath id="clip0_608_174">
<rect width="343.606" height="291.222" fill="white"/>
</clipPath>
</defs>
</svg>
